<svg version="1.0" xmlns="http://www.w3.org/2000/svg"
 width="24.000000pt" height="24.000000pt" viewBox="0 0 24.000000 24.000000"
 preserveAspectRatio="xMidYMid meet">

<g transform="translate(0.000000,24.000000) scale(0.100000,-0.100000)"
fill="#000000" stroke="none">
<path d="M107 192 c-52 -53 -57 -70 -27 -97 19 -18 22 -18 37 -2 16 16 16 17
1 17 -33 0 -30 22 8 61 21 21 44 39 51 39 15 0 18 -26 3 -35 -5 -3 -7 -12 -3
-21 5 -13 8 -13 24 2 23 21 24 47 3 68 -25 26 -47 19 -97 -32z"/>
<path d="M120 145 c-10 -13 -9 -15 9 -15 11 0 21 -6 21 -13 0 -16 -72 -87 -88
-87 -15 0 -16 22 0 38 8 8 9 15 2 22 -7 7 -16 4 -28 -9 -25 -28 -14 -69 20
-77 21 -6 34 1 75 42 52 51 59 73 33 98 -19 20 -28 20 -44 1z"/>
</g>
</svg>
